<?xml version="1.0" encoding="UTF-8" standalone="no"?>
<!-- Created with Inkscape (http://www.inkscape.org/) -->

<svg
   xmlns:dc="http://purl.org/dc/elements/1.1/"
   xmlns:cc="http://creativecommons.org/ns#"
   xmlns:rdf="http://www.w3.org/1999/02/22-rdf-syntax-ns#"
   xmlns:svg="http://www.w3.org/2000/svg"
   xmlns="http://www.w3.org/2000/svg"
   xmlns:sodipodi="http://sodipodi.sourceforge.net/DTD/sodipodi-0.dtd"
   xmlns:inkscape="http://www.inkscape.org/namespaces/inkscape"
   width="750"
   height="750"
   viewBox="0 0 198.43749 198.43749"
   version="1.1"
   id="svg8"
   inkscape:version="0.92.5 (2060ec1f9f, 2020-04-08)"
   sodipodi:docname="ledger_icon_android.svg"
   inkscape:export-filename="/home/doogyb/Projects/revolut-listener/assets/ledger_icon_android.png"
   inkscape:export-xdpi="96"
   inkscape:export-ydpi="96">
  <defs
     id="defs2" />
  <sodipodi:namedview
     id="base"
     pagecolor="#ffffff"
     bordercolor="#666666"
     borderopacity="1.0"
     inkscape:pageopacity="0.0"
     inkscape:pageshadow="2"
     inkscape:zoom="0.98994949"
     inkscape:cx="329.03183"
     inkscape:cy="180.07223"
     inkscape:document-units="px"
     inkscape:current-layer="layer4"
     showgrid="false"
     units="px"
     inkscape:window-width="3840"
     inkscape:window-height="2089"
     inkscape:window-x="0"
     inkscape:window-y="34"
     inkscape:window-maximized="1"
     showguides="true"
     inkscape:guide-bbox="true">
    <inkscape:grid
       type="xygrid"
       id="grid3908" />
    <sodipodi:guide
       position="165.17256,99.218745"
       orientation="0,1"
       id="guide7613"
       inkscape:locked="false"
       inkscape:label=""
       inkscape:color="rgb(0,0,255)" />
    <sodipodi:guide
       position="99.218745,104.76965"
       orientation="1,0"
       id="guide7615"
       inkscape:locked="false"
       inkscape:label=""
       inkscape:color="rgb(0,0,255)" />
  </sodipodi:namedview>
  <metadata
     id="metadata5">
    <rdf:RDF>
      <cc:Work
         rdf:about="">
        <dc:format>image/svg+xml</dc:format>
        <dc:type
           rdf:resource="http://purl.org/dc/dcmitype/StillImage" />
        <dc:title></dc:title>
      </cc:Work>
    </rdf:RDF>
  </metadata>
  <g
     inkscape:groupmode="layer"
     id="layer2"
     inkscape:label="Background"
     transform="translate(0,62.970833)"
     style="display:inline">
    <rect
       style="fill:#ef5040;fill-opacity:1;stroke-width:0.91917354"
       id="rect1380"
       width="198.4375"
       height="198.4375"
       x="-1.6697754e-14"
       y="-135.46666"
       transform="scale(1,-1)" />
  </g>
  <g
     inkscape:label="Text"
     inkscape:groupmode="layer"
     id="layer1"
     transform="translate(0,-98.562527)"
     style="display:none;opacity:1">
    <g
       id="Expanded"
       transform="matrix(3.9791806,0,0,3.9791806,7.6975962,98.203741)" />
    <text
       xml:space="preserve"
       style="display:inline;font-style:normal;font-variant:normal;font-weight:normal;font-stretch:normal;font-size:14.68396568px;line-height:1.25;font-family:Satisfy;-inkscape-font-specification:'Satisfy, Normal';font-variant-ligatures:normal;font-variant-caps:normal;font-variant-numeric:normal;font-feature-settings:normal;text-align:start;letter-spacing:0px;word-spacing:0px;writing-mode:lr-tb;text-anchor:start;opacity:1;fill:#000000;fill-opacity:1;stroke:none;stroke-width:0.0786641"
       x="-41.90794"
       y="127.90557"
       id="text817"
       transform="rotate(-44.252862,121.20469,49.281263)"><tspan
         sodipodi:role="line"
         id="tspan815"
         x="-41.90794"
         y="127.90557"
         style="font-style:normal;font-variant:normal;font-weight:normal;font-stretch:normal;font-size:14.68396568px;font-family:Satisfy;-inkscape-font-specification:'Satisfy, Normal';font-variant-ligatures:normal;font-variant-caps:normal;font-variant-numeric:normal;font-feature-settings:normal;text-align:start;writing-mode:lr-tb;text-anchor:start;stroke-width:0.0786641">Ledger.io</tspan></text>
  </g>
  <g
     inkscape:groupmode="layer"
     id="layer5"
     inkscape:label="Letter"
     style="display:inline">
    <text
       xml:space="preserve"
       style="font-style:normal;font-variant:normal;font-weight:normal;font-stretch:normal;font-size:46.25501251px;line-height:1.25;font-family:Satisfy;-inkscape-font-specification:'Satisfy, Normal';font-variant-ligatures:normal;font-variant-caps:normal;font-variant-numeric:normal;font-feature-settings:normal;text-align:start;letter-spacing:0px;word-spacing:0px;writing-mode:lr-tb;text-anchor:start;display:inline;opacity:1;fill:#000000;fill-opacity:1;stroke:none;stroke-width:0.24779469"
       x="23.77807"
       y="145.30449"
       id="text817-5"
       transform="rotate(-17.769624)"><tspan
         sodipodi:role="line"
         id="tspan815-9"
         x="23.77807"
         y="145.30449"
         style="font-style:normal;font-variant:normal;font-weight:normal;font-stretch:normal;font-size:46.25501251px;font-family:Satisfy;-inkscape-font-specification:'Satisfy, Normal';font-variant-ligatures:normal;font-variant-caps:normal;font-variant-numeric:normal;font-feature-settings:normal;text-align:start;writing-mode:lr-tb;text-anchor:start;stroke-width:0.24779469">L</tspan></text>
  </g>
  <g
     inkscape:groupmode="layer"
     id="layer4"
     inkscape:label="Thin Ledger"
     style="display:inline">
    <path
       style="fill:#000000;fill-opacity:1;stroke:#000000;stroke-width:0;stroke-linejoin:round;stroke-miterlimit:4;stroke-dasharray:none"
       d="m 78.760088,73.402999 c -11.12377,-5.302796 -20.352535,-9.75683 -20.508364,-9.897854 -0.51617,-0.467128 -0.807483,-1.493891 -0.620676,-2.18764 0.254264,-0.944264 0.926134,-1.493538 1.928576,-1.576668 0.826319,-0.06853 0.934788,-0.01938 20.160664,9.134496 10.63142,5.061867 19.40279,9.203388 19.49192,9.203388 0.0891,0 8.842682,-4.133929 19.452342,-9.186514 20.59069,-9.8058 19.93044,-9.525239 21.05171,-8.945403 1.05613,0.546144 1.41973,2.160114 0.72043,3.197816 -0.31653,0.469695 -2.5506,1.57323 -20.66967,10.209952 -11.17313,5.325839 -20.419882,9.684809 -20.548332,9.686609 -0.12846,0.002 -9.33483,-4.33538 -20.4586,-9.638182 z"
       id="path1723"
       inkscape:connector-curvature="0" />
    <path
       style="fill:#000000;fill-opacity:1;stroke:#000000;stroke-width:0;stroke-miterlimit:4;stroke-dasharray:none"
       d="m 97.661648,165.72835 c -18.45692,-8.72591 -48.284508,-23.00913 -48.55542,-23.25121 -0.85707,-0.76589 -0.802698,1.78628 -0.802069,-37.64851 5.7e-4,-36.128002 0.0036,-36.486302 0.309984,-36.988846 0.473664,-0.77687 1.188228,-1.157567 2.02499,-1.078849 0.524706,0.04936 6.711705,2.929776 24.636355,11.469686 l 23.93569,11.40376 24.068072,-11.46101 c 18.7836,-8.944599 24.19798,-11.461016 24.65976,-11.461016 0.74605,0 1.56053,0.529161 1.92206,1.248734 0.25686,0.511238 0.27226,2.594507 0.27248,36.864801 3.1e-4,39.34862 0.0525,36.97163 -0.82874,37.66487 -0.21979,0.17288 -11.45647,5.5798 -24.97039,12.01538 -18.04551,8.59361 -24.715502,11.701 -25.115732,11.70087 -0.29973,-1e-4 -1.0004,-0.2155 -1.55704,-0.47866 z m 26.781032,-16.24432 21.09785,-10.05177 0.0393,-33.41981 c 0.0373,-31.782091 0.0259,-33.415967 -0.23355,-33.340409 -0.40279,0.117291 -43.52481,20.67512 -43.7531,20.85869 -0.15461,0.12432 -0.19463,7.017699 -0.19463,33.526169 v 33.36961 l 0.97315,-0.44536 c 0.53523,-0.24495 10.46718,-4.96865 22.071,-10.49712 z M 96.844558,126.87722 96.805258,93.464041 74.930648,83.046571 C 62.899628,77.316961 53.002551,72.629096 52.937162,72.629096 c -0.06539,0 -0.101213,15.034275 -0.07961,33.409554 l 0.03928,33.40948 21.876376,10.41963 c 12.032,5.73079 21.92907,10.42028 21.9935,10.4211 0.0644,5.8e-4 0.0995,-15.03443 0.0778,-33.41164 z"
       id="path1725"
       inkscape:connector-curvature="0" />
    <path
       style="fill:#fffbe8;fill-opacity:0;stroke:#000000;stroke-width:0;stroke-linejoin:round;stroke-miterlimit:4;stroke-dasharray:none"
       d="m 101.49196,128.07982 c 0,-17.71211 0.0445,-32.730569 0.0989,-33.374299 l 0.0989,-1.17041 3.67688,-1.75724 c 32.49822,-15.53136 39.89574,-19.027215 40.01369,-18.909311 0.14379,0.143737 0.19688,54.8006 0.0594,61.16291 l -0.11726,5.42684 -21.48711,10.2231 c -11.81791,5.62271 -21.67979,10.30841 -21.91529,10.41268 l -0.42819,0.18957 z"
       id="path1752"
       inkscape:connector-curvature="0" />
  </g>
</svg>
